<?xml version="1.0" encoding="utf-8"?>
<!-- Generator: Adobe Illustrator 22.0.0, SVG Export Plug-In . SVG Version: 6.00 Build 0)  -->
<svg version="1.1" id="Layer_1" xmlns="http://www.w3.org/2000/svg" xmlns:xlink="http://www.w3.org/1999/xlink" x="0px" y="0px"
	 viewBox="0 0 512 512" style="enable-background:new 0 0 512 512;" xml:space="preserve">
<style type="text/css">
	.st0{fill:#FFFFFF;}
</style>
<g id="_x30_25---Live-Recording">
	<path id="Shape" class="st0" d="M119.5,268.8v110.9c0,4.7,3.8,8.5,8.5,8.5c4.7,0,8.5-3.8,8.5-8.5V268.8c0-4.7-3.8-8.5-8.5-8.5
		C123.3,260.3,119.5,264.1,119.5,268.8z"/>
	<path id="Shape_1_" class="st0" d="M213.5,266.9L192,360.3l-21.5-93.4c-0.7-3-2.9-5.4-5.8-6.2c-2.9-0.9-6.1-0.2-8.3,1.9
		c-2.2,2.1-3.2,5.2-2.5,8.2l25.6,110.9c0.9,3.9,4.3,6.6,8.3,6.6h8.5c4,0,7.4-2.7,8.3-6.6l25.6-110.9c1.1-4.6-1.8-9.2-6.4-10.2
		C219.2,259.4,214.6,262.3,213.5,266.9L213.5,266.9z"/>
	<path id="Shape_2_" class="st0" d="M51.2,260.3c-4.7,0-8.5,3.8-8.5,8.5v110.9c0,4.7,3.8,8.5,8.5,8.5h42.7c4.7,0,8.5-3.8,8.5-8.5
		c0-4.7-3.8-8.5-8.5-8.5H59.7V268.8C59.7,264.1,55.9,260.3,51.2,260.3z"/>
	<path id="Shape_3_" class="st0" d="M298.7,277.3c4.7,0,8.5-3.8,8.5-8.5s-3.8-8.5-8.5-8.5H256c-4.7,0-8.5,3.8-8.5,8.5v110.9
		c0,4.7,3.8,8.5,8.5,8.5h42.7c4.7,0,8.5-3.8,8.5-8.5c0-4.7-3.8-8.5-8.5-8.5h-34.1v-34.1h34.1c4.7,0,8.5-3.8,8.5-8.5
		s-3.8-8.5-8.5-8.5h-34.1v-42.7H298.7z"/>
	<path id="Shape_4_" class="st0" d="M42.7,430.9h290.1c19.9,0,37.1-13.7,41.5-33.1c1.6-6.9,1.2-1.1,1.2-106.5c0-4.7-3.8-8.5-8.5-8.5
		s-8.5,3.8-8.5,8.5c0,105.8,0.3,98.2-0.7,102.6c-2.6,11.6-13,19.9-24.9,19.9H42.7c-14.1,0-25.6-11.5-25.6-25.6v-128
		c0-14.1,11.5-25.6,25.6-25.6h259c4.7,0,8.5-3.8,8.5-8.5s-3.8-8.5-8.5-8.5h-259C19.1,217.6,0,236.7,0,260.3v128
		C0,411.8,19.1,430.9,42.7,430.9L42.7,430.9z"/>
	<path id="Shape_5_" class="st0" d="M437,370c7.6,1.2,15.4-1.1,21.2-6.3c38.3-34.1,58-84.4,53.2-135.5c-6-65-50.4-120-112.7-139.6
		s-130.2,0-172.4,49.8c-6.3,6.9-8.2,16.7-5.2,25.6c3.1,8.8,10.7,15.3,19.9,16.8c9.2,1.6,18.5-2,24.3-9.4
		c26.8-31.5,68.9-45.5,109.2-36.3s72.2,40.1,82.6,80.2c10.4,40-2.4,82.6-33.1,110.3c-7.5,6.5-10.5,16.8-7.7,26.3
		S427.2,368.4,437,370z M435.5,338.2c35.5-31.9,50.3-81,38.3-127.2c-12-46.2-48.8-81.9-95.3-92.6s-95.2,5.5-126.1,42
		c-2.1,2.5-5.4,3.6-8.6,2.9c-3.2-0.8-5.6-3.3-6.3-6.5c-0.5-2.6,0.1-5.3,1.9-7.3c37.7-44.6,98.5-62.1,154.2-44.6
		s95.4,66.8,100.8,124.9c4.4,45.7-13.3,90.7-47.6,121.2c-2.2,2.3-5.6,3.1-8.6,2.2c-3.1-0.9-5.3-3.5-5.9-6.7
		C431.7,343.4,432.9,340.2,435.5,338.2L435.5,338.2z"/>
	<path id="Shape_6_" class="st0" d="M382.9,296.1c4.3,7.4,12,12.2,20.6,12.7s16.8-3.3,22-10.2c27.1-37.2,23.3-88.6-9.1-121.3
		s-83.8-37.1-121.2-10.4c-7.1,5.3-11,13.9-10.2,22.8c0.8,8.9,6.1,16.6,14.1,20.6c8.3,4.3,18.2,3.7,25.9-1.7
		c17-12.2,40.4-10.2,55.1,4.7s16.5,38.3,4.1,55.2C378.3,276.6,377.8,287.5,382.9,296.1z M356.8,183.9c-14.8-1.7-29.8,2.2-41.9,10.9
		c-2.6,1.5-5.8,1.6-8.4,0.2c-2.6-1.4-4.4-4-4.6-7c-0.3-2.8,0.9-5.4,3.2-7.1c30.7-22.1,72.8-18.5,99.4,8.3
		c26.6,26.8,29.7,69,7.3,99.5c-1.8,2.2-4.5,3.5-7.4,3.3c-2.8-0.2-5.4-1.8-6.8-4.3c-1.7-2.8-1.6-6.3,0.2-8.9
		c12.6-17.1,15.2-39.7,6.7-59.2C396.2,199.9,378,186.4,356.8,183.9L356.8,183.9z"/>
	<path id="Shape_7_" class="st0" d="M324.3,243.2c0,14.1,11.5,25.6,25.6,25.6c14.1,0,25.6-11.5,25.6-25.6s-11.5-25.6-25.6-25.6
		C335.7,217.6,324.3,229.1,324.3,243.2z M358.4,243.2c0,4.7-3.8,8.5-8.5,8.5c-4.7,0-8.5-3.8-8.5-8.5s3.8-8.5,8.5-8.5
		C354.6,234.7,358.4,238.5,358.4,243.2z"/>
</g>
</svg>
