<?xml version="1.0" encoding="utf-8"?>
<!-- Generator: Adobe Illustrator 22.0.0, SVG Export Plug-In . SVG Version: 6.00 Build 0)  -->
<svg version="1.1" id="Layer_1" xmlns="http://www.w3.org/2000/svg" xmlns:xlink="http://www.w3.org/1999/xlink" x="0px" y="0px"
	 viewBox="0 0 300 300" style="enable-background:new 0 0 300 300;" xml:space="preserve">
<style type="text/css">
	.st0{fill:#FFFFFF;}
</style>
<g>
	<g>
		<path class="st0" d="M150,0C67.2,0,0,67.2,0,150c0,82.8,67.2,150,150,150s150-67.2,150-150C300,67.2,232.8,0,150,0z M230.1,172.4
			c-9.9,37.1-43.8,64.5-84,64.5c-47.9,0-86.9-39-86.9-86.9s39-86.9,86.9-86.9c21.9,0,41.9,8.2,57.2,21.6l-13.6,23.6
			c-11-11.5-26.5-18.7-43.6-18.7c-33.3,0-60.4,27.1-60.4,60.4c0,33.3,27.1,60.4,60.4,60.4c25.4,0,47.1-15.7,56-37.9h-20.8l36.2-62.6
			l36.2,62.6H230.1z"/>
	</g>
</g>
</svg>
